<svg xmlns="http://www.w3.org/2000/svg" xmlns:xlink="http://www.w3.org/1999/xlink" width="500" zoomAndPan="magnify" viewBox="0 0 375 374.999991" height="500" preserveAspectRatio="xMidYMid meet" version="1.0"><defs><g/><clipPath id="23d2537060"><path d="M 217.867188 156.9375 L 274.867188 156.9375 L 274.867188 201.917969 L 217.867188 201.917969 Z M 217.867188 156.9375 " clip-rule="nonzero"/></clipPath></defs><g fill="#f6be00" fill-opacity="1"><g transform="translate(29.396746, 200.809587)"><g><path d="M 17.890625 -32.484375 C 21.359375 -32.484375 24.476562 -31.515625 27.25 -29.578125 C 30.019531 -27.640625 31.984375 -25.101562 33.140625 -21.96875 L 22.328125 -21.96875 C 21.003906 -22.957031 19.523438 -23.453125 17.890625 -23.453125 C 15.890625 -23.453125 14.191406 -22.753906 12.796875 -21.359375 C 11.398438 -19.960938 10.703125 -18.257812 10.703125 -16.25 C 10.703125 -14.25 11.398438 -12.546875 12.796875 -11.140625 C 14.191406 -9.734375 15.890625 -9.03125 17.890625 -9.03125 C 19.796875 -9.03125 21.460938 -9.691406 22.890625 -11.015625 L 33.296875 -11.015625 C 32.171875 -7.753906 30.207031 -5.101562 27.40625 -3.0625 C 24.601562 -1.019531 21.429688 0 17.890625 0 C 13.410156 0 9.585938 -1.578125 6.421875 -4.734375 C 3.265625 -7.898438 1.6875 -11.742188 1.6875 -16.265625 C 1.6875 -20.753906 3.265625 -24.578125 6.421875 -27.734375 C 9.585938 -30.898438 13.410156 -32.484375 17.890625 -32.484375 Z M 17.890625 -32.484375 "/></g></g></g><g fill="#f6be00" fill-opacity="1"><g transform="translate(64.320844, 200.809587)"><g><path d="M 6.453125 -27.765625 C 9.628906 -30.941406 13.457031 -32.53125 17.9375 -32.53125 C 22.425781 -32.53125 26.257812 -30.941406 29.4375 -27.765625 C 32.613281 -24.585938 34.203125 -20.753906 34.203125 -16.265625 C 34.203125 -11.773438 32.613281 -7.941406 29.4375 -4.765625 C 26.257812 -1.585938 22.425781 0 17.9375 0 C 13.457031 0 9.628906 -1.585938 6.453125 -4.765625 C 3.273438 -7.941406 1.6875 -11.773438 1.6875 -16.265625 C 1.6875 -20.753906 3.273438 -24.585938 6.453125 -27.765625 Z M 23.0625 -21.375 C 21.65625 -22.789062 19.945312 -23.5 17.9375 -23.5 C 15.9375 -23.5 14.226562 -22.789062 12.8125 -21.375 C 11.40625 -19.96875 10.703125 -18.265625 10.703125 -16.265625 C 10.703125 -14.296875 11.40625 -12.601562 12.8125 -11.1875 C 14.226562 -9.78125 15.9375 -9.078125 17.9375 -9.078125 C 19.945312 -9.078125 21.65625 -9.78125 23.0625 -11.1875 C 24.476562 -12.601562 25.1875 -14.296875 25.1875 -16.265625 C 25.1875 -18.265625 24.476562 -19.96875 23.0625 -21.375 Z M 23.0625 -21.375 "/></g></g></g><g fill="#f6be00" fill-opacity="1"><g transform="translate(100.264626, 200.809587)"><g><path d="M 29.421875 -32.53125 C 32.753906 -32.53125 35.625 -31.332031 38.03125 -28.9375 C 40.445312 -26.539062 41.65625 -23.675781 41.65625 -20.34375 L 41.65625 0 L 32.578125 0 L 32.578125 -20.34375 C 32.578125 -21.195312 32.257812 -21.9375 31.625 -22.5625 C 31 -23.1875 30.257812 -23.5 29.40625 -23.5 C 28.5625 -23.5 27.820312 -23.1875 27.1875 -22.5625 C 26.5625 -21.9375 26.25 -21.195312 26.25 -20.34375 L 26.25 0 L 17.234375 0 L 17.234375 -20.34375 C 17.234375 -21.195312 16.914062 -21.9375 16.28125 -22.5625 C 15.65625 -23.1875 14.921875 -23.5 14.078125 -23.5 C 13.191406 -23.5 12.441406 -23.1875 11.828125 -22.5625 C 11.210938 -21.9375 10.90625 -21.195312 10.90625 -20.34375 L 10.90625 0 L 1.890625 4.484375 L 1.890625 -20.34375 C 1.890625 -23.707031 3.085938 -26.578125 5.484375 -28.953125 C 7.878906 -31.335938 10.742188 -32.53125 14.078125 -32.53125 C 16.929688 -32.53125 19.492188 -31.613281 21.765625 -29.78125 C 23.972656 -31.613281 26.523438 -32.53125 29.421875 -32.53125 Z M 29.421875 -32.53125 "/></g></g></g><g fill="#f6be00" fill-opacity="1"><g transform="translate(143.805037, 200.809587)"><g><path d="M 6.46875 -27.734375 C 9.632812 -30.898438 13.441406 -32.484375 17.890625 -32.484375 C 22.347656 -32.484375 26.144531 -30.898438 29.28125 -27.734375 C 32.425781 -24.578125 34 -20.753906 34 -16.265625 C 34 -15.515625 33.953125 -14.785156 33.859375 -14.078125 L 11.015625 -14.078125 C 11.484375 -12.578125 12.347656 -11.359375 13.609375 -10.421875 C 14.867188 -9.492188 16.296875 -9.03125 17.890625 -9.03125 C 19.085938 -9.03125 20.191406 -9.300781 21.203125 -9.84375 L 32.734375 -9.84375 C 31.472656 -6.882812 29.5 -4.503906 26.8125 -2.703125 C 24.132812 -0.898438 21.160156 0 17.890625 0 C 13.441406 0 9.632812 -1.578125 6.46875 -4.734375 C 3.3125 -7.898438 1.734375 -11.742188 1.734375 -16.265625 C 1.734375 -20.753906 3.3125 -24.578125 6.46875 -27.734375 Z M 11.46875 -19.46875 L 24.265625 -19.46875 C 23.648438 -20.664062 22.773438 -21.628906 21.640625 -22.359375 C 20.503906 -23.085938 19.253906 -23.453125 17.890625 -23.453125 C 16.503906 -23.453125 15.238281 -23.085938 14.09375 -22.359375 C 12.957031 -21.628906 12.082031 -20.664062 11.46875 -19.46875 Z M 11.46875 -19.46875 "/></g></g></g><g fill="#ffffff" fill-opacity="1"><g transform="translate(179.595642, 200.809587)"><g><path d="M 29.5 -4.765625 C 26.320312 -1.585938 22.488281 0 18 0 C 13.507812 0 9.675781 -1.585938 6.5 -4.765625 C 3.320312 -7.941406 1.734375 -11.773438 1.734375 -16.265625 C 1.734375 -20.753906 3.320312 -24.585938 6.5 -27.765625 C 9.675781 -30.941406 13.507812 -32.53125 18 -32.53125 C 20.507812 -32.53125 22.921875 -31.96875 25.234375 -30.84375 L 25.234375 -37.015625 L 34.265625 -41.546875 L 34.265625 -16.265625 C 34.265625 -11.773438 32.675781 -7.941406 29.5 -4.765625 Z M 12.859375 -11.140625 C 14.273438 -9.734375 15.984375 -9.03125 17.984375 -9.03125 C 19.992188 -9.03125 21.703125 -9.734375 23.109375 -11.140625 C 24.523438 -12.546875 25.234375 -14.25 25.234375 -16.25 C 25.234375 -18.257812 24.523438 -19.96875 23.109375 -21.375 C 21.703125 -22.789062 19.992188 -23.5 17.984375 -23.5 C 15.984375 -23.5 14.273438 -22.789062 12.859375 -21.375 C 11.453125 -19.96875 10.75 -18.257812 10.75 -16.25 C 10.75 -14.25 11.453125 -12.546875 12.859375 -11.140625 Z M 12.859375 -11.140625 "/></g></g></g><g fill="#ffffff" fill-opacity="1"><g transform="translate(215.739541, 200.809587)"><g/></g></g><g fill="#ffffff" fill-opacity="1"><g transform="translate(236.082189, 200.809587)"><g/></g></g><g fill="#ffffff" fill-opacity="1"><g transform="translate(256.424837, 200.809587)"><g/></g></g><g fill="#ffffff" fill-opacity="1"><g transform="translate(276.764082, 200.809587)"><g><path d="M 1.9375 -16.265625 C 1.9375 -20.753906 3.523438 -24.585938 6.703125 -27.765625 C 9.878906 -30.941406 13.710938 -32.53125 18.203125 -32.53125 L 18.203125 -23.453125 C 16.191406 -23.453125 14.484375 -22.742188 13.078125 -21.328125 C 11.671875 -19.921875 10.96875 -18.234375 10.96875 -16.265625 L 10.96875 0 L 1.9375 4.53125 Z M 1.9375 -16.265625 "/></g></g></g><g fill="#ffffff" fill-opacity="1"><g transform="translate(296.596889, 200.809587)"><g><path d="M 11.015625 -32.53125 L 11.015625 0 L 1.984375 0 L 1.984375 -27.984375 Z M 3.640625 -40.34375 C 4.441406 -41.144531 5.398438 -41.546875 6.515625 -41.546875 C 7.640625 -41.546875 8.59375 -41.144531 9.375 -40.34375 C 10.15625 -39.550781 10.546875 -38.59375 10.546875 -37.46875 C 10.546875 -36.351562 10.15625 -35.394531 9.375 -34.59375 C 8.59375 -33.789062 7.640625 -33.390625 6.515625 -33.390625 C 5.398438 -33.390625 4.441406 -33.789062 3.640625 -34.59375 C 2.847656 -35.394531 2.453125 -36.351562 2.453125 -37.46875 C 2.453125 -38.59375 2.847656 -39.550781 3.640625 -40.34375 Z M 3.640625 -40.34375 "/></g></g></g><g fill="#ffffff" fill-opacity="1"><g transform="translate(309.546849, 200.809587)"><g><path d="M 6.5 -27.765625 C 9.675781 -30.941406 13.507812 -32.53125 18 -32.53125 C 22.488281 -32.53125 26.320312 -30.941406 29.5 -27.765625 C 32.675781 -24.585938 34.265625 -20.753906 34.265625 -16.265625 L 34.265625 2.796875 L 25.234375 -1.6875 C 22.890625 -0.5625 20.476562 0 18 0 C 13.507812 0 9.675781 -1.585938 6.5 -4.765625 C 3.320312 -7.941406 1.734375 -11.773438 1.734375 -16.265625 C 1.734375 -20.753906 3.320312 -24.585938 6.5 -27.765625 Z M 23.109375 -21.375 C 21.703125 -22.789062 19.992188 -23.5 17.984375 -23.5 C 15.984375 -23.5 14.273438 -22.789062 12.859375 -21.375 C 11.453125 -19.96875 10.75 -18.257812 10.75 -16.25 C 10.75 -14.25 11.453125 -12.546875 12.859375 -11.140625 C 14.273438 -9.734375 15.984375 -9.03125 17.984375 -9.03125 C 19.992188 -9.03125 21.703125 -9.734375 23.109375 -11.140625 C 24.523438 -12.546875 25.234375 -14.25 25.234375 -16.25 C 25.234375 -18.257812 24.523438 -19.96875 23.109375 -21.375 Z M 23.109375 -21.375 "/></g></g></g><g clip-path="url(#23d2537060)"><path fill="#ffffff" d="M 259.773438 165.082031 C 260.8125 165.082031 260.8125 163.464844 259.773438 163.464844 C 258.738281 163.464844 258.734375 165.082031 259.773438 165.082031 Z M 233.621094 164.832031 C 234.65625 164.832031 234.660156 163.214844 233.621094 163.214844 C 232.582031 163.214844 232.578125 164.832031 233.621094 164.832031 Z M 229.550781 170.980469 C 230.589844 170.980469 230.59375 169.363281 229.550781 169.363281 C 228.515625 169.363281 228.511719 170.980469 229.550781 170.980469 Z M 241.316406 167.691406 C 242.351562 167.691406 242.355469 166.074219 241.316406 166.074219 C 240.277344 166.074219 240.277344 167.691406 241.316406 167.691406 Z M 244.070312 161.003906 C 245.109375 161.003906 245.109375 159.386719 244.070312 159.386719 C 243.03125 159.386719 243.03125 161.003906 244.070312 161.003906 Z M 257.960938 171.296875 C 259 171.296875 259.003906 169.679688 257.960938 169.679688 C 256.921875 169.679688 256.921875 171.296875 257.960938 171.296875 Z M 252.769531 162.761719 C 253.804688 162.761719 253.808594 161.140625 252.769531 161.140625 C 251.730469 161.140625 251.726562 162.761719 252.769531 162.761719 Z M 246.367188 158.550781 C 233.421875 158.550781 222.890625 165.058594 222.890625 173.058594 L 222.890625 173.753906 C 222.890625 174.558594 223.542969 175.214844 224.351562 175.214844 L 268.386719 175.214844 C 269.191406 175.214844 269.84375 174.558594 269.84375 173.753906 L 269.84375 173.058594 C 269.84375 165.058594 259.3125 158.550781 246.367188 158.550781 Z M 268.386719 176.832031 L 224.347656 176.832031 C 222.65625 176.832031 221.277344 175.449219 221.277344 173.753906 L 221.277344 173.058594 C 221.277344 168.679688 223.9375 164.589844 228.769531 161.542969 C 233.480469 158.574219 239.730469 156.9375 246.367188 156.9375 C 253.003906 156.9375 259.253906 158.574219 263.96875 161.542969 C 268.796875 164.589844 271.457031 168.679688 271.457031 173.058594 L 271.457031 173.753906 C 271.457031 175.449219 270.078125 176.832031 268.386719 176.832031 Z M 272.613281 179.621094 C 272.71875 179.539062 272.683594 179.570312 272.566406 179.648438 C 272.394531 179.761719 272.226562 179.867188 272.046875 179.964844 C 271.519531 180.253906 270.945312 180.46875 270.347656 180.566406 C 269.460938 180.710938 268.558594 180.578125 267.75 180.183594 C 266.835938 179.738281 266.125 179.003906 265.179688 178.597656 C 263.214844 177.753906 260.835938 178.167969 259.234375 179.59375 C 259.21875 179.609375 259.191406 179.628906 259.15625 179.648438 C 258.988281 179.761719 258.816406 179.867188 258.640625 179.964844 C 258.113281 180.253906 257.535156 180.46875 256.941406 180.566406 C 256.054688 180.710938 255.152344 180.578125 254.34375 180.183594 C 253.429688 179.738281 252.714844 179.003906 251.773438 178.597656 C 249.808594 177.753906 247.429688 178.167969 245.828125 179.59375 C 245.808594 179.609375 245.785156 179.628906 245.75 179.648438 C 245.578125 179.761719 245.40625 179.867188 245.230469 179.964844 C 244.703125 180.253906 244.125 180.46875 243.53125 180.566406 C 242.644531 180.710938 241.742188 180.578125 240.933594 180.183594 C 240.019531 179.738281 239.308594 179.003906 238.367188 178.597656 C 236.398438 177.753906 234.019531 178.167969 232.417969 179.59375 C 232.402344 179.609375 232.375 179.628906 232.339844 179.648438 C 232.171875 179.761719 232 179.867188 231.820312 179.964844 C 231.292969 180.253906 230.714844 180.46875 230.121094 180.566406 C 229.234375 180.710938 228.332031 180.578125 227.523438 180.183594 C 226.613281 179.738281 225.898438 179.003906 224.957031 178.597656 C 222.976562 177.75 220.578125 178.171875 218.980469 179.621094 C 218.207031 180.320312 219.351562 181.460938 220.121094 180.765625 C 220.609375 180.320312 221.429688 179.949219 222.144531 179.820312 C 224.21875 179.445312 225.425781 181.058594 227.164062 181.789062 C 229.269531 182.671875 231.765625 182.175781 233.527344 180.765625 C 234.019531 180.320312 234.839844 179.949219 235.550781 179.820312 C 237.628906 179.445312 238.835938 181.058594 240.574219 181.789062 C 242.679688 182.671875 245.171875 182.175781 246.9375 180.765625 C 247.425781 180.320312 248.25 179.949219 248.960938 179.820312 C 251.039062 179.445312 252.242188 181.058594 253.980469 181.789062 C 256.085938 182.671875 258.582031 182.175781 260.347656 180.765625 C 260.835938 180.320312 261.65625 179.949219 262.371094 179.820312 C 264.449219 179.445312 265.652344 181.058594 267.390625 181.789062 C 269.496094 182.671875 271.992188 182.175781 273.753906 180.765625 C 274.566406 180.117188 273.417969 178.980469 272.613281 179.621094 Z M 220.617188 185.171875 C 219.988281 185.171875 219.480469 185.683594 219.480469 186.3125 L 219.480469 187.367188 C 219.480469 187.996094 219.988281 188.507812 220.617188 188.507812 L 272.117188 188.507812 C 272.746094 188.507812 273.257812 187.996094 273.257812 187.367188 L 273.257812 186.3125 C 273.257812 185.683594 272.746094 185.171875 272.117188 185.171875 Z M 272.117188 190.125 L 220.617188 190.125 C 219.101562 190.125 217.867188 188.890625 217.867188 187.367188 L 217.867188 186.3125 C 217.867188 184.792969 219.101562 183.554688 220.617188 183.554688 L 272.117188 183.554688 C 273.632812 183.554688 274.867188 184.792969 274.867188 186.3125 L 274.867188 187.367188 C 274.867188 188.890625 273.632812 190.125 272.117188 190.125 Z M 224.347656 193.335938 C 223.542969 193.335938 222.890625 193.992188 222.890625 194.796875 L 222.890625 195.808594 C 222.890625 198.285156 224.898438 200.300781 227.371094 200.300781 L 265.363281 200.300781 C 267.835938 200.300781 269.84375 198.285156 269.84375 195.808594 L 269.84375 194.796875 C 269.84375 193.992188 269.1875 193.335938 268.386719 193.335938 Z M 265.363281 201.917969 L 227.371094 201.917969 C 224.011719 201.917969 221.277344 199.175781 221.277344 195.808594 L 221.277344 194.796875 C 221.277344 193.101562 222.65625 191.71875 224.351562 191.71875 L 268.386719 191.71875 C 270.078125 191.71875 271.457031 193.101562 271.457031 194.796875 L 271.457031 195.808594 C 271.457031 199.175781 268.726562 201.917969 265.367188 201.917969 " fill-opacity="1" fill-rule="nonzero"/></g></svg>